<svg width="24" height="24" viewBox="0 0 24 24" fill="none" xmlns="http://www.w3.org/2000/svg">
<path d="M24 8.184L23.9797 8.094L23.9647 8.04675C23.9527 8.01975 23.9445 7.99575 23.934 7.96875C23.934 7.953 23.922 7.938 23.9137 7.9215L23.8785 7.85175L23.8515 7.8045L23.8043 7.7415L23.7615 7.69875L23.6985 7.6515L23.6512 7.62075L23.5935 7.578L23.5507 7.539L23.535 7.52025L12.5782 0.191247C12.234 -0.0427529 11.7855 -0.0427529 11.4383 0.191247L0.39525 7.551L0.336 7.602L0.297 7.641L0.246 7.69875L0.21075 7.7415L0.15975 7.8045C0.141 7.8195 0.129 7.8315 0.129 7.84725L0.078 7.9095L0.05925 7.96875C0.039 7.98 0.039 8.00775 0.027 8.0385L0.02025 8.0895C0 8.12025 0 8.14725 0 8.1795V15.6757C0 15.723 0.00375 15.7657 0.012 15.8115L0.02025 15.8587C0.02325 15.8865 0.0315 15.918 0.039 15.945L0.05475 15.9922C0.066 16.02 0.06975 16.047 0.08175 16.0702L0.105 16.1175C0.105 16.1295 0.117 16.1602 0.13275 16.1805L0.1635 16.2195C0.17925 16.2307 0.19425 16.2585 0.21075 16.2772L0.23775 16.32L0.27675 16.359C0.28875 16.371 0.28875 16.3912 0.309 16.3912L0.36675 16.4302L0.4095 16.461L0.41775 16.4767L11.391 23.805C11.5553 23.9257 11.766 23.9692 11.961 23.9692C12.1523 23.9692 12.348 23.9062 12.5272 23.7892L23.688 16.383L23.7382 16.3237L23.7735 16.2765L23.8125 16.2187L23.8447 16.1677L23.8717 16.098L23.8875 16.047L23.9183 15.969L23.934 15.9262L23.9647 15.8445V8.3445C23.9647 8.29725 23.9648 8.25075 23.9445 8.2035L23.9333 8.16075L23.976 8.1645L24 8.184ZM12.012 14.4607L8.35875 12.0225L12.012 9.5775L15.66 12.0195L12.012 14.4607ZM10.977 7.78875L6.504 10.7767L2.89125 8.3625L10.977 2.97225V7.78875ZM4.64475 12.0202L2.06175 13.7505V10.3012L4.64475 12.027V12.0202ZM6.504 13.2697L10.977 16.2615V21.0817L2.89125 15.6907L6.5085 13.2697H6.504ZM13.0387 16.2622L17.5155 13.281L21.1283 15.699L13.038 21.09L13.0387 16.2622ZM19.371 12.0307L21.9533 10.3117V13.7655L19.371 12.0345V12.0307ZM17.5163 10.7887L13.0433 7.80075V2.9685L21.129 8.35875L17.5163 10.773V10.7887Z" fill="black"/>
</svg>
